grf
version=1
nRows=15
nColumns=37
inDegrees=no
endheader
time	ground_force_1_vx	ground_force_1_vy	ground_force_1_vz	ground_force_1_px	ground_force_1_py	ground_force_1_pz	ground_moment_1_mx	ground_moment_1_my	ground_moment_1_mz	ground_force_2_vx	ground_force_2_vy	ground_force_2_vz	ground_force_2_px	ground_force_2_py	ground_force_2_pz	ground_moment_2_mx	ground_moment_2_my	ground_moment_2_mz	ground_force_3_vx	ground_force_3_vy	ground_force_3_vz	ground_force_3_px	ground_force_3_py	ground_force_3_pz	ground_moment_3_mx	ground_moment_3_my	ground_moment_3_mz	ground_force_4_vx	ground_force_4_vy	ground_force_4_vz	ground_force_4_px	ground_force_4_py	ground_force_4_pz	ground_moment_4_mx	ground_moment_4_my	ground_moment_4_mz
      0.00000000	      0.00000000	     -0.00000000	      0.00000000	      0.00000000	      0.00000000	      0.00000000	      0.00000000	      0.00000000	      0.00000000	    -12.41970062	     39.21090317	   -441.57751465	   -284.97972496	  -1047.17802385	      0.00000000	      0.00000000	      0.00000000	   2229.17029932	      5.42720976	    -39.20956850	   -547.86047363	   -332.31399037	   -724.44649927	      0.00000000	      0.00000000	     -0.00000000	  -1720.81970353	      0.00000000	     -0.00000000	      0.00000000	      0.00000000	      0.00000000	      0.00000000	      0.00000000	      0.00000000	      0.00000000
      0.01000000	      0.00000000	     -0.00000000	      0.00000000	      0.00000000	      0.00000000	      0.00000000	      0.00000000	      0.00000000	      0.00000000	    -12.38704777	     39.03251648	   -440.89932251	   -284.19218864	  -1047.57918618	      0.00000000	      0.00000000	      0.00000000	   2096.83990763	      5.84408560	    -39.27082876	   -546.89929199	   -332.76722562	   -724.33706832	      0.00000000	      0.00000000	     -0.00000000	  -1685.06665639	      0.00000000	     -0.00000000	      0.00000000	      0.00000000	      0.00000000	      0.00000000	      0.00000000	      0.00000000	      0.00000000
      0.02000000	      0.00000000	     -0.00000000	      0.00000000	      0.00000000	      0.00000000	      0.00000000	      0.00000000	      0.00000000	      0.00000000	    -12.73012543	     39.12151337	   -441.72131348	   -285.00574010	  -1048.64041761	      0.00000000	      0.00000000	      0.00000000	   2178.70926528	      6.19310704	    -39.14860589	   -547.16424561	   -332.71596315	   -724.09377009	      0.00000000	      0.00000000	     -0.00000000	  -1971.52774867	      0.00000000	     -0.00000000	      0.00000000	      0.00000000	      0.00000000	      0.00000000	      0.00000000	      0.00000000	      0.00000000
      0.03000000	      0.00000000	     -0.00000000	      0.00000000	      0.00000000	      0.00000000	      0.00000000	      0.00000000	      0.00000000	      0.00000000	    -12.90804005	     38.92939377	   -441.82812500	   -284.72520953	  -1049.26728437	      0.00000000	      0.00000000	      0.00000000	   2176.58222558	      5.91524833	    -38.93291907	   -547.38037109	   -333.23519323	   -723.87447916	      0.00000000	     -0.00000000	     -0.00000000	  -1881.41919484	      0.00000000	     -0.00000000	      0.00000000	      0.00000000	      0.00000000	      0.00000000	      0.00000000	      0.00000000	      0.00000000
      0.04000000	      0.00000000	     -0.00000000	      0.00000000	      0.00000000	      0.00000000	      0.00000000	      0.00000000	      0.00000000	      0.00000000	    -12.22183990	     38.66862869	   -440.74087524	   -285.27560094	  -1048.52348123	      0.00000000	      0.00000000	      0.00000000	   2329.90721353	      6.09787360	    -39.14381081	   -546.07312012	   -333.14584695	   -724.28512277	      0.00000000	      0.00000000	     -0.00000000	  -1739.41055225	      0.00000000	     -0.00000000	      0.00000000	      0.00000000	      0.00000000	      0.00000000	      0.00000000	      0.00000000	      0.00000000
      0.05000000	      0.00000000	     -0.00000000	      0.00000000	      0.00000000	      0.00000000	      0.00000000	      0.00000000	      0.00000000	      0.00000000	    -12.15397930	     38.94287872	   -439.32766724	   -283.94525437	  -1048.50418387	      0.00000000	      0.00000000	      0.00000000	   2193.04658046	      6.37533656	    -39.18536814	   -545.39819336	   -333.94192875	   -724.86221917	      0.00000000	     -0.00000000	     -0.00000000	  -1903.20255401	      0.00000000	     -0.00000000	      0.00000000	      0.00000000	      0.00000000	      0.00000000	      0.00000000	      0.00000000	      0.00000000
      0.06000000	      0.00000000	     -0.00000000	      0.00000000	      0.00000000	      0.00000000	      0.00000000	      0.00000000	      0.00000000	      0.00000000	    -12.61711311	     38.62245941	   -441.68453979	   -285.20118518	  -1049.73775736	      0.00000000	      0.00000000	      0.00000000	   2090.35844618	      6.63514033	    -39.20277081	   -548.09661865	   -333.35822575	   -724.64494768	      0.00000000	      0.00000000	     -0.00000000	  -1968.25993265	      0.00000000	     -0.00000000	      0.00000000	      0.00000000	      0.00000000	      0.00000000	      0.00000000	      0.00000000	      0.00000000
      0.07000000	      0.00000000	     -0.00000000	      0.00000000	      0.00000000	      0.00000000	      0.00000000	      0.00000000	      0.00000000	      0.00000000	    -12.21445847	     39.21000290	   -440.32772827	   -284.05507483	  -1048.93564211	      0.00000000	      0.00000000	      0.00000000	   2233.82940421	      6.65330542	    -39.45518170	   -547.81884766	   -333.81299145	   -724.63409373	      0.00000000	      0.00000000	     -0.00000000	  -1891.05830970	      0.00000000	     -0.00000000	      0.00000000	      0.00000000	      0.00000000	      0.00000000	      0.00000000	      0.00000000	      0.00000000
      0.08000000	      0.00000000	     -0.00000000	      0.00000000	      0.00000000	      0.00000000	      0.00000000	      0.00000000	      0.00000000	      0.00000000	    -11.82078362	     38.94249725	   -439.67935181	   -284.38341373	  -1048.81931121	      0.00000000	      0.00000000	      0.00000000	   2280.26242548	      6.90683972	    -39.61881316	   -548.61639404	   -334.56387788	   -724.63904534	      0.00000000	      0.00000000	     -0.00000000	  -1911.08555862	      0.00000000	     -0.00000000	      0.00000000	      0.00000000	      0.00000000	      0.00000000	      0.00000000	      0.00000000	      0.00000000
      0.09000000	      0.00000000	     -0.00000000	      0.00000000	      0.00000000	      0.00000000	      0.00000000	      0.00000000	      0.00000000	      0.00000000	    -11.95420837	     38.90657425	   -441.35415649	   -285.04587675	  -1049.01572351	      0.00000000	      0.00000000	      0.00000000	   2356.23164691	      7.40672575	    -39.66283863	   -550.56146240	   -335.03978662	   -724.09501912	      0.00000000	      0.00000000	     -0.00000000	  -1856.83370725	      0.00000000	     -0.00000000	      0.00000000	      0.00000000	      0.00000000	      0.00000000	      0.00000000	      0.00000000	      0.00000000
      0.10000000	      0.00000000	     -0.00000000	      0.00000000	      0.00000000	      0.00000000	      0.00000000	      0.00000000	      0.00000000	      0.00000000	    -11.91158009	     39.15927505	   -441.38272095	   -286.17201954	  -1047.52693849	      0.00000000	      0.00000000	      0.00000000	   2274.78470394	      7.56009801	    -39.97706289	   -550.18548584	   -335.38147953	   -724.93926311	      0.00000000	     -0.00000000	     -0.00000000	  -2018.97915436	      0.00000000	     -0.00000000	      0.00000000	      0.00000000	      0.00000000	      0.00000000	      0.00000000	      0.00000000	      0.00000000
      0.11000000	      0.00000000	     -0.00000000	      0.00000000	      0.00000000	      0.00000000	      0.00000000	      0.00000000	      0.00000000	      0.00000000	    -11.72603512	     39.19372177	   -441.82812500	   -285.61487472	  -1048.69038441	      0.00000000	      0.00000000	      0.00000000	   2343.75872935	      8.06598893	    -39.21482920	   -549.07696533	   -336.24250979	   -725.62924634	      0.00000000	      0.00000000	     -0.00000000	  -2064.72616781	      0.00000000	     -0.00000000	      0.00000000	      0.00000000	      0.00000000	      0.00000000	      0.00000000	      0.00000000	      0.00000000
      0.12000000	      0.00000000	     -0.00000000	      0.00000000	      0.00000000	      0.00000000	      0.00000000	      0.00000000	      0.00000000	      0.00000000	    -12.52261162	     39.00600815	   -442.02273560	   -285.59048110	  -1048.43142891	      0.00000000	      0.00000000	      0.00000000	   1976.06526225	      7.90886965	    -39.28282235	   -552.17041016	   -336.45929827	   -724.63769871	      0.00000000	      0.00000000	     -0.00000000	  -1974.85270559	      0.00000000	     -0.00000000	      0.00000000	      0.00000000	      0.00000000	      0.00000000	      0.00000000	      0.00000000	      0.00000000
      0.13000000	      0.00000000	     -0.00000000	      0.00000000	      0.00000000	      0.00000000	      0.00000000	      0.00000000	      0.00000000	      0.00000000	    -11.98675632	     38.95811844	   -442.05242920	   -285.87228569	  -1048.23645764	      0.00000000	      0.00000000	      0.00000000	   2088.95509662	      8.16832203	    -38.80083537	   -553.21429443	   -336.39696246	   -724.28382481	      0.00000000	      0.00000000	     -0.00000000	  -2070.61366241	      0.00000000	     -0.00000000	      0.00000000	      0.00000000	      0.00000000	      0.00000000	      0.00000000	      0.00000000	      0.00000000
      0.14000000	      0.00000000	     -0.00000000	      0.00000000	      0.00000000	      0.00000000	      0.00000000	      0.00000000	      0.00000000	      0.00000000	    -11.93766022	     39.10345078	   -441.79537964	   -286.39121278	  -1047.84848762	      0.00000000	      0.00000000	      0.00000000	   2159.83254170	      9.16229484	    -38.48328098	   -551.77081299	   -337.31753425	   -726.13556478	      0.00000000	      0.00000000	     -0.00000000	  -2253.60866180	      0.00000000	     -0.00000000	      0.00000000	      0.00000000	      0.00000000	      0.00000000	      0.00000000	      0.00000000	      0.00000000
